# xmcd
#
# Track frame offsets: 
#        150
#        17192
#        38292
#        62057
#        79188
#        94884
#        113767
#        138671
#        161631
#        185085
#        202219
#        220507
#        230829
#        249352
#
# Disc length: 3709 seconds
#
# Revision: 3
# Processed by: cddbd v1.5.2PL0 Copyright (c) Steve Scherf et al.
# Submitted via: ExactAudioCopy v0.95b4
#
DISCID=c40e7b0e
DTITLE=Dave Hole - Short Fuse Blues
DYEAR=1992
DGENRE=Blues
TTITLE0=Keep Your Motor Running
TTITLE1=The Bottle
TTITLE2=Short Fuse Blues
TTITLE3=Every Girl I See
TTITLE4=Travelling Riverside Blues
TTITLE5=Albatross
TTITLE6=Night Cat
TTITLE7=Tore Down
TTITLE8=The Sun Is Shining
TTITLE9=Purple Haze
TTITLE10=Truckload of Lovin'
TTITLE11=Dark Was The Night (Cold Was The Ground)
TTITLE12=Business Man
TTITLE13=Take A Swing
EXTD=
EXTT0=
EXTT1=
EXTT2=
EXTT3=
EXTT4=
EXTT5=
EXTT6=
EXTT7=
EXTT8=
EXTT9=
EXTT10=
EXTT11=
EXTT12=
EXTT13=
PLAYORDER=
